<svg width="451" height="863" viewBox="0 0 451 863" fill="none" xmlns="http://www.w3.org/2000/svg">
<g filter="url(#filter0_dddddd_1_35)">
<mask id="path-1-inside-1_1_35" fill="white">
<path fill-rule="evenodd" clip-rule="evenodd" d="M29 19.2607C24.5817 19.2607 21 22.8425 21 27.2607V347.261V491.261C21 495.679 24.5817 499.261 29 499.261H93H133C137.418 499.261 141 495.679 141 491.261V347.261C141 342.842 137.418 339.261 133 339.261H101V27.2607C101 22.8425 97.4183 19.2607 93 19.2607H29Z"/>
</mask>
<g filter="url(#filter1_ii_1_35)">
<path fill-rule="evenodd" clip-rule="evenodd" d="M29 19.2607C24.5817 19.2607 21 22.8425 21 27.2607V347.261V491.261C21 495.679 24.5817 499.261 29 499.261H93H133C137.418 499.261 141 495.679 141 491.261V347.261C141 342.842 137.418 339.261 133 339.261H101V27.2607C101 22.8425 97.4183 19.2607 93 19.2607H29Z" fill="white"/>
</g>
<path d="M101 339.261H100V340.261H101V339.261ZM22 27.2607C22 23.3947 25.134 20.2607 29 20.2607V18.2607C24.0294 18.2607 20 22.2902 20 27.2607H22ZM22 347.261V27.2607H20V347.261H22ZM22 491.261V347.261H20V491.261H22ZM29 498.261C25.134 498.261 22 495.127 22 491.261H20C20 496.231 24.0294 500.261 29 500.261V498.261ZM93 498.261H29V500.261H93V498.261ZM133 498.261H93V500.261H133V498.261ZM140 491.261C140 495.127 136.866 498.261 133 498.261V500.261C137.971 500.261 142 496.231 142 491.261H140ZM140 347.261V491.261H142V347.261H140ZM133 340.261C136.866 340.261 140 343.395 140 347.261H142C142 342.29 137.971 338.261 133 338.261V340.261ZM101 340.261H133V338.261H101V340.261ZM100 27.2607V339.261H102V27.2607H100ZM93 20.2607C96.866 20.2607 100 23.3947 100 27.2607H102C102 22.2902 97.9706 18.2607 93 18.2607V20.2607ZM29 20.2607H93V18.2607H29V20.2607Z" fill="white" fill-opacity="0.3" mask="url(#path-1-inside-1_1_35)"/>
<g filter="url(#filter2_f_1_35)">
<path d="M30 447.261V252.261L39.4233 438.223C39.4686 439.118 40.1042 439.874 40.9784 440.072L64.0791 445.31C66.4048 445.838 66.0215 449.261 63.6367 449.261H32C30.8954 449.261 30 448.365 30 447.261Z" fill="white" fill-opacity="0.4"/>
</g>
</g>
<defs>
<filter id="filter0_dddddd_1_35" x="0" y="0.260742" width="451" height="862" filterUnits="userSpaceOnUse" color-interpolation-filters="sRGB">
<feFlood flood-opacity="0" result="BackgroundImageFix"/>
<feColorMatrix in="SourceAlpha" type="matrix" values="0 0 0 0 0 0 0 0 0 0 0 0 0 0 0 0 0 0 127 0" result="hardAlpha"/>
<feOffset/>
<feColorMatrix type="matrix" values="0 0 0 0 0 0 0 0 0 0 0 0 0 0 0 0 0 0 0.45 0"/>
<feBlend mode="normal" in2="BackgroundImageFix" result="effect1_dropShadow_1_35"/>
<feColorMatrix in="SourceAlpha" type="matrix" values="0 0 0 0 0 0 0 0 0 0 0 0 0 0 0 0 0 0 127 0" result="hardAlpha"/>
<feOffset dx="9" dy="11"/>
<feGaussianBlur stdDeviation="15"/>
<feColorMatrix type="matrix" values="0 0 0 0 0 0 0 0 0 0 0 0 0 0 0 0 0 0 0.44 0"/>
<feBlend mode="normal" in2="effect1_dropShadow_1_35" result="effect2_dropShadow_1_35"/>
<feColorMatrix in="SourceAlpha" type="matrix" values="0 0 0 0 0 0 0 0 0 0 0 0 0 0 0 0 0 0 127 0" result="hardAlpha"/>
<feOffset dx="34" dy="43"/>
<feGaussianBlur stdDeviation="27.5"/>
<feColorMatrix type="matrix" values="0 0 0 0 0 0 0 0 0 0 0 0 0 0 0 0 0 0 0.38 0"/>
<feBlend mode="normal" in2="effect2_dropShadow_1_35" result="effect3_dropShadow_1_35"/>
<feColorMatrix in="SourceAlpha" type="matrix" values="0 0 0 0 0 0 0 0 0 0 0 0 0 0 0 0 0 0 127 0" result="hardAlpha"/>
<feOffset dx="77" dy="96"/>
<feGaussianBlur stdDeviation="37"/>
<feColorMatrix type="matrix" values="0 0 0 0 0 0 0 0 0 0 0 0 0 0 0 0 0 0 0.22 0"/>
<feBlend mode="normal" in2="effect3_dropShadow_1_35" result="effect4_dropShadow_1_35"/>
<feColorMatrix in="SourceAlpha" type="matrix" values="0 0 0 0 0 0 0 0 0 0 0 0 0 0 0 0 0 0 127 0" result="hardAlpha"/>
<feOffset dx="137" dy="171"/>
<feGaussianBlur stdDeviation="44"/>
<feColorMatrix type="matrix" values="0 0 0 0 0 0 0 0 0 0 0 0 0 0 0 0 0 0 0.07 0"/>
<feBlend mode="normal" in2="effect4_dropShadow_1_35" result="effect5_dropShadow_1_35"/>
<feColorMatrix in="SourceAlpha" type="matrix" values="0 0 0 0 0 0 0 0 0 0 0 0 0 0 0 0 0 0 127 0" result="hardAlpha"/>
<feOffset dx="214" dy="267"/>
<feGaussianBlur stdDeviation="48"/>
<feColorMatrix type="matrix" values="0 0 0 0 0 0 0 0 0 0 0 0 0 0 0 0 0 0 0.01 0"/>
<feBlend mode="normal" in2="effect5_dropShadow_1_35" result="effect6_dropShadow_1_35"/>
<feBlend mode="normal" in="SourceGraphic" in2="effect6_dropShadow_1_35" result="shape"/>
</filter>
<filter id="filter1_ii_1_35" x="21" y="19.2607" width="120" height="484" filterUnits="userSpaceOnUse" color-interpolation-filters="sRGB">
<feFlood flood-opacity="0" result="BackgroundImageFix"/>
<feBlend mode="normal" in="SourceGraphic" in2="BackgroundImageFix" result="shape"/>
<feColorMatrix in="SourceAlpha" type="matrix" values="0 0 0 0 0 0 0 0 0 0 0 0 0 0 0 0 0 0 127 0" result="hardAlpha"/>
<feOffset dy="-40"/>
<feComposite in2="hardAlpha" operator="arithmetic" k2="-1" k3="1"/>
<feColorMatrix type="matrix" values="0 0 0 0 0.411765 0 0 0 0 0.411765 0 0 0 0 0.411765 0 0 0 0.97 0"/>
<feBlend mode="normal" in2="shape" result="effect1_innerShadow_1_35"/>
<feColorMatrix in="SourceAlpha" type="matrix" values="0 0 0 0 0 0 0 0 0 0 0 0 0 0 0 0 0 0 127 0" result="hardAlpha"/>
<feOffset dy="4"/>
<feGaussianBlur stdDeviation="4"/>
<feComposite in2="hardAlpha" operator="arithmetic" k2="-1" k3="1"/>
<feColorMatrix type="matrix" values="0 0 0 0 0 0 0 0 0 0 0 0 0 0 0 0 0 0 0.15 0"/>
<feBlend mode="multiply" in2="effect1_innerShadow_1_35" result="effect2_innerShadow_1_35"/>
</filter>
<filter id="filter2_f_1_35" x="28" y="250.261" width="39.6378" height="201" filterUnits="userSpaceOnUse" color-interpolation-filters="sRGB">
<feFlood flood-opacity="0" result="BackgroundImageFix"/>
<feBlend mode="normal" in="SourceGraphic" in2="BackgroundImageFix" result="shape"/>
<feGaussianBlur stdDeviation="1" result="effect1_foregroundBlur_1_35"/>
</filter>
</defs>
</svg>
