<svg width="451" height="863" viewBox="0 0 451 863" fill="none" xmlns="http://www.w3.org/2000/svg">
<g filter="url(#filter0_dddddd_1_32)">
<mask id="path-1-inside-1_1_32" fill="white">
<path fill-rule="evenodd" clip-rule="evenodd" d="M69 19.2607C64.5817 19.2607 61 22.8425 61 27.2607V339.261H29C24.5817 339.261 21 342.842 21 347.261V491.261C21 495.679 24.5817 499.261 29 499.261H69H133C137.418 499.261 141 495.679 141 491.261V347.261V27.2607C141 22.8425 137.418 19.2607 133 19.2607H69Z"/>
</mask>
<g filter="url(#filter1_ii_1_32)">
<path fill-rule="evenodd" clip-rule="evenodd" d="M69 19.2607C64.5817 19.2607 61 22.8425 61 27.2607V339.261H29C24.5817 339.261 21 342.842 21 347.261V491.261C21 495.679 24.5817 499.261 29 499.261H69H133C137.418 499.261 141 495.679 141 491.261V347.261V27.2607C141 22.8425 137.418 19.2607 133 19.2607H69Z" fill="white"/>
</g>
<path d="M61 339.261V340.261H62V339.261H61ZM62 27.2607C62 23.3947 65.134 20.2607 69 20.2607V18.2607C64.0294 18.2607 60 22.2902 60 27.2607H62ZM62 339.261V27.2607H60V339.261H62ZM29 340.261H61V338.261H29V340.261ZM22 347.261C22 343.395 25.134 340.261 29 340.261V338.261C24.0294 338.261 20 342.29 20 347.261H22ZM22 491.261V347.261H20V491.261H22ZM29 498.261C25.134 498.261 22 495.127 22 491.261H20C20 496.231 24.0294 500.261 29 500.261V498.261ZM69 498.261H29V500.261H69V498.261ZM133 498.261H69V500.261H133V498.261ZM140 491.261C140 495.127 136.866 498.261 133 498.261V500.261C137.971 500.261 142 496.231 142 491.261H140ZM140 347.261V491.261H142V347.261H140ZM140 27.2607V347.261H142V27.2607H140ZM133 20.2607C136.866 20.2607 140 23.3947 140 27.2607H142C142 22.2902 137.971 18.2607 133 18.2607V20.2607ZM69 20.2607H133V18.2607H69V20.2607Z" fill="white" fill-opacity="0.3" mask="url(#path-1-inside-1_1_32)"/>
</g>
<defs>
<filter id="filter0_dddddd_1_32" x="0" y="0.260742" width="451" height="862" filterUnits="userSpaceOnUse" color-interpolation-filters="sRGB">
<feFlood flood-opacity="0" result="BackgroundImageFix"/>
<feColorMatrix in="SourceAlpha" type="matrix" values="0 0 0 0 0 0 0 0 0 0 0 0 0 0 0 0 0 0 127 0" result="hardAlpha"/>
<feOffset/>
<feColorMatrix type="matrix" values="0 0 0 0 0 0 0 0 0 0 0 0 0 0 0 0 0 0 0.45 0"/>
<feBlend mode="normal" in2="BackgroundImageFix" result="effect1_dropShadow_1_32"/>
<feColorMatrix in="SourceAlpha" type="matrix" values="0 0 0 0 0 0 0 0 0 0 0 0 0 0 0 0 0 0 127 0" result="hardAlpha"/>
<feOffset dx="9" dy="11"/>
<feGaussianBlur stdDeviation="15"/>
<feColorMatrix type="matrix" values="0 0 0 0 0 0 0 0 0 0 0 0 0 0 0 0 0 0 0.44 0"/>
<feBlend mode="normal" in2="effect1_dropShadow_1_32" result="effect2_dropShadow_1_32"/>
<feColorMatrix in="SourceAlpha" type="matrix" values="0 0 0 0 0 0 0 0 0 0 0 0 0 0 0 0 0 0 127 0" result="hardAlpha"/>
<feOffset dx="34" dy="43"/>
<feGaussianBlur stdDeviation="27.5"/>
<feColorMatrix type="matrix" values="0 0 0 0 0 0 0 0 0 0 0 0 0 0 0 0 0 0 0.38 0"/>
<feBlend mode="normal" in2="effect2_dropShadow_1_32" result="effect3_dropShadow_1_32"/>
<feColorMatrix in="SourceAlpha" type="matrix" values="0 0 0 0 0 0 0 0 0 0 0 0 0 0 0 0 0 0 127 0" result="hardAlpha"/>
<feOffset dx="77" dy="96"/>
<feGaussianBlur stdDeviation="37"/>
<feColorMatrix type="matrix" values="0 0 0 0 0 0 0 0 0 0 0 0 0 0 0 0 0 0 0.22 0"/>
<feBlend mode="normal" in2="effect3_dropShadow_1_32" result="effect4_dropShadow_1_32"/>
<feColorMatrix in="SourceAlpha" type="matrix" values="0 0 0 0 0 0 0 0 0 0 0 0 0 0 0 0 0 0 127 0" result="hardAlpha"/>
<feOffset dx="137" dy="171"/>
<feGaussianBlur stdDeviation="44"/>
<feColorMatrix type="matrix" values="0 0 0 0 0 0 0 0 0 0 0 0 0 0 0 0 0 0 0.07 0"/>
<feBlend mode="normal" in2="effect4_dropShadow_1_32" result="effect5_dropShadow_1_32"/>
<feColorMatrix in="SourceAlpha" type="matrix" values="0 0 0 0 0 0 0 0 0 0 0 0 0 0 0 0 0 0 127 0" result="hardAlpha"/>
<feOffset dx="214" dy="267"/>
<feGaussianBlur stdDeviation="48"/>
<feColorMatrix type="matrix" values="0 0 0 0 0 0 0 0 0 0 0 0 0 0 0 0 0 0 0.01 0"/>
<feBlend mode="normal" in2="effect5_dropShadow_1_32" result="effect6_dropShadow_1_32"/>
<feBlend mode="normal" in="SourceGraphic" in2="effect6_dropShadow_1_32" result="shape"/>
</filter>
<filter id="filter1_ii_1_32" x="21" y="19.2607" width="120" height="484" filterUnits="userSpaceOnUse" color-interpolation-filters="sRGB">
<feFlood flood-opacity="0" result="BackgroundImageFix"/>
<feBlend mode="normal" in="SourceGraphic" in2="BackgroundImageFix" result="shape"/>
<feColorMatrix in="SourceAlpha" type="matrix" values="0 0 0 0 0 0 0 0 0 0 0 0 0 0 0 0 0 0 127 0" result="hardAlpha"/>
<feOffset dy="-40"/>
<feComposite in2="hardAlpha" operator="arithmetic" k2="-1" k3="1"/>
<feColorMatrix type="matrix" values="0 0 0 0 0.411765 0 0 0 0 0.411765 0 0 0 0 0.411765 0 0 0 0.97 0"/>
<feBlend mode="normal" in2="shape" result="effect1_innerShadow_1_32"/>
<feColorMatrix in="SourceAlpha" type="matrix" values="0 0 0 0 0 0 0 0 0 0 0 0 0 0 0 0 0 0 127 0" result="hardAlpha"/>
<feOffset dy="4"/>
<feGaussianBlur stdDeviation="4"/>
<feComposite in2="hardAlpha" operator="arithmetic" k2="-1" k3="1"/>
<feColorMatrix type="matrix" values="0 0 0 0 0 0 0 0 0 0 0 0 0 0 0 0 0 0 0.15 0"/>
<feBlend mode="multiply" in2="effect1_innerShadow_1_32" result="effect2_innerShadow_1_32"/>
</filter>
</defs>
</svg>
