<svg width="451" height="863" viewBox="0 0 451 863" fill="none" xmlns="http://www.w3.org/2000/svg">
<g filter="url(#filter0_dddddd_125_2692)">
<mask id="path-1-inside-1_125_2692" fill="white">
<path d="M21 27.2607C21 22.8425 24.5817 19.2607 29 19.2607H133C137.418 19.2607 141 22.8425 141 27.2607V491.261C141 495.679 137.418 499.261 133 499.261H29C24.5817 499.261 21 495.679 21 491.261V27.2607Z"/>
</mask>
<g filter="url(#filter1_ii_125_2692)">
<path d="M21 27.2607C21 22.8425 24.5817 19.2607 29 19.2607H133C137.418 19.2607 141 22.8425 141 27.2607V491.261C141 495.679 137.418 499.261 133 499.261H29C24.5817 499.261 21 495.679 21 491.261V27.2607Z" fill="white"/>
</g>
<path d="M29 20.2607H133V18.2607H29V20.2607ZM140 27.2607V491.261H142V27.2607H140ZM133 498.261H29V500.261H133V498.261ZM22 491.261V27.2607H20V491.261H22ZM29 498.261C25.134 498.261 22 495.127 22 491.261H20C20 496.231 24.0294 500.261 29 500.261V498.261ZM140 491.261C140 495.127 136.866 498.261 133 498.261V500.261C137.971 500.261 142 496.231 142 491.261H140ZM133 20.2607C136.866 20.2607 140 23.3947 140 27.2607H142C142 22.2902 137.971 18.2607 133 18.2607V20.2607ZM29 18.2607C24.0294 18.2607 20 22.2902 20 27.2607H22C22 23.3947 25.134 20.2607 29 20.2607V18.2607Z" fill="white" fill-opacity="0.3" mask="url(#path-1-inside-1_125_2692)"/>
</g>
<defs>
<filter id="filter0_dddddd_125_2692" x="0" y="0.260742" width="451" height="862" filterUnits="userSpaceOnUse" color-interpolation-filters="sRGB">
<feFlood flood-opacity="0" result="BackgroundImageFix"/>
<feColorMatrix in="SourceAlpha" type="matrix" values="0 0 0 0 0 0 0 0 0 0 0 0 0 0 0 0 0 0 127 0" result="hardAlpha"/>
<feOffset/>
<feColorMatrix type="matrix" values="0 0 0 0 0 0 0 0 0 0 0 0 0 0 0 0 0 0 0.45 0"/>
<feBlend mode="normal" in2="BackgroundImageFix" result="effect1_dropShadow_125_2692"/>
<feColorMatrix in="SourceAlpha" type="matrix" values="0 0 0 0 0 0 0 0 0 0 0 0 0 0 0 0 0 0 127 0" result="hardAlpha"/>
<feOffset dx="9" dy="11"/>
<feGaussianBlur stdDeviation="15"/>
<feColorMatrix type="matrix" values="0 0 0 0 0 0 0 0 0 0 0 0 0 0 0 0 0 0 0.44 0"/>
<feBlend mode="normal" in2="effect1_dropShadow_125_2692" result="effect2_dropShadow_125_2692"/>
<feColorMatrix in="SourceAlpha" type="matrix" values="0 0 0 0 0 0 0 0 0 0 0 0 0 0 0 0 0 0 127 0" result="hardAlpha"/>
<feOffset dx="34" dy="43"/>
<feGaussianBlur stdDeviation="27.5"/>
<feColorMatrix type="matrix" values="0 0 0 0 0 0 0 0 0 0 0 0 0 0 0 0 0 0 0.38 0"/>
<feBlend mode="normal" in2="effect2_dropShadow_125_2692" result="effect3_dropShadow_125_2692"/>
<feColorMatrix in="SourceAlpha" type="matrix" values="0 0 0 0 0 0 0 0 0 0 0 0 0 0 0 0 0 0 127 0" result="hardAlpha"/>
<feOffset dx="77" dy="96"/>
<feGaussianBlur stdDeviation="37"/>
<feColorMatrix type="matrix" values="0 0 0 0 0 0 0 0 0 0 0 0 0 0 0 0 0 0 0.22 0"/>
<feBlend mode="normal" in2="effect3_dropShadow_125_2692" result="effect4_dropShadow_125_2692"/>
<feColorMatrix in="SourceAlpha" type="matrix" values="0 0 0 0 0 0 0 0 0 0 0 0 0 0 0 0 0 0 127 0" result="hardAlpha"/>
<feOffset dx="137" dy="171"/>
<feGaussianBlur stdDeviation="44"/>
<feColorMatrix type="matrix" values="0 0 0 0 0 0 0 0 0 0 0 0 0 0 0 0 0 0 0.07 0"/>
<feBlend mode="normal" in2="effect4_dropShadow_125_2692" result="effect5_dropShadow_125_2692"/>
<feColorMatrix in="SourceAlpha" type="matrix" values="0 0 0 0 0 0 0 0 0 0 0 0 0 0 0 0 0 0 127 0" result="hardAlpha"/>
<feOffset dx="214" dy="267"/>
<feGaussianBlur stdDeviation="48"/>
<feColorMatrix type="matrix" values="0 0 0 0 0 0 0 0 0 0 0 0 0 0 0 0 0 0 0.01 0"/>
<feBlend mode="normal" in2="effect5_dropShadow_125_2692" result="effect6_dropShadow_125_2692"/>
<feBlend mode="normal" in="SourceGraphic" in2="effect6_dropShadow_125_2692" result="shape"/>
</filter>
<filter id="filter1_ii_125_2692" x="21" y="19.2607" width="120" height="484" filterUnits="userSpaceOnUse" color-interpolation-filters="sRGB">
<feFlood flood-opacity="0" result="BackgroundImageFix"/>
<feBlend mode="normal" in="SourceGraphic" in2="BackgroundImageFix" result="shape"/>
<feColorMatrix in="SourceAlpha" type="matrix" values="0 0 0 0 0 0 0 0 0 0 0 0 0 0 0 0 0 0 127 0" result="hardAlpha"/>
<feOffset dy="-40"/>
<feComposite in2="hardAlpha" operator="arithmetic" k2="-1" k3="1"/>
<feColorMatrix type="matrix" values="0 0 0 0 0.411765 0 0 0 0 0.411765 0 0 0 0 0.411765 0 0 0 0.97 0"/>
<feBlend mode="normal" in2="shape" result="effect1_innerShadow_125_2692"/>
<feColorMatrix in="SourceAlpha" type="matrix" values="0 0 0 0 0 0 0 0 0 0 0 0 0 0 0 0 0 0 127 0" result="hardAlpha"/>
<feOffset dy="4"/>
<feGaussianBlur stdDeviation="4"/>
<feComposite in2="hardAlpha" operator="arithmetic" k2="-1" k3="1"/>
<feColorMatrix type="matrix" values="0 0 0 0 0 0 0 0 0 0 0 0 0 0 0 0 0 0 0.15 0"/>
<feBlend mode="multiply" in2="effect1_innerShadow_125_2692" result="effect2_innerShadow_125_2692"/>
</filter>
</defs>
</svg>
