<svg width="52" height="52" viewBox="0 0 52 52" fill="none" xmlns="http://www.w3.org/2000/svg">
<rect x="0.5" y="0.5" width="51" height="51" rx="9.5" stroke="white"/>
<path d="M44.5683 14.4489C43.2015 15.0561 41.7331 15.4645 40.1919 15.6489C41.7659 14.7061 42.9727 13.2137 43.5411 11.4341C42.0699 12.3069 40.4391 12.9409 38.7019 13.2837C37.3123 11.8025 35.3327 10.8769 33.1415 10.8769C28.2983 10.8121 24.5747 15.5437 25.7207 20.2309C19.3891 19.9137 13.7759 16.8801 10.0167 12.2693C7.96508 15.6149 9.12988 20.3993 12.3751 22.4417C11.1267 22.4017 9.95108 22.0589 8.92428 21.4889C8.87668 25.2109 11.5171 28.3533 15.0359 29.0545C13.9547 29.3561 12.7091 29.4033 11.5951 29.1857C12.5651 32.2121 15.3787 34.4161 18.7123 34.4773C15.6983 36.8857 11.4787 38.1413 7.43188 37.6325C23.7047 47.6473 41.6939 34.5265 40.7651 18.3921C42.2543 17.3169 43.5471 15.9757 44.5683 14.4489Z" fill="white"/>
</svg>
